<?xml version="1.0" encoding="UTF-8" standalone="no"?>
<!DOCTYPE svg PUBLIC "-//W3C//DTD SVG 1.1//EN"
 "http://www.w3.org/Graphics/SVG/1.1/DTD/svg11.dtd">
<!-- Generated by graphviz version 2.43.0 (0)
 -->
<!-- Title: grafo Pages: 1 -->
<svg width="262pt" height="1220pt"
 viewBox="0.00 0.00 262.00 1220.00" xmlns="http://www.w3.org/2000/svg" xmlns:xlink="http://www.w3.org/1999/xlink">
<g id="graph0" class="graph" transform="scale(1 1) rotate(0) translate(4 1216)">
<title>grafo</title>
<polygon fill="white" stroke="transparent" points="-4,4 -4,-1216 258,-1216 258,4 -4,4"/>
<!-- a -->
<g id="node1" class="node">
<title>a</title>
<polygon fill="none" stroke="black" points="79.5,-1175.5 79.5,-1211.5 174.5,-1211.5 174.5,-1175.5 79.5,-1175.5"/>
<text text-anchor="middle" x="127" y="-1189.8" font-family="Arial" font-size="14.00">MBR Disk.dk</text>
</g>
<!-- tablaMbr -->
<g id="node2" class="node">
<title>tablaMbr</title>
<polygon fill="none" stroke="black" points="11,-1110.5 11,-1131.5 141,-1131.5 141,-1110.5 11,-1110.5"/>
<text text-anchor="start" x="51.5" y="-1117.3" font-family="Arial" font-size="14.00">Nombre</text>
<polygon fill="none" stroke="black" points="143,-1110.5 143,-1131.5 243,-1131.5 243,-1110.5 143,-1110.5"/>
<text text-anchor="start" x="177.5" y="-1117.3" font-family="Arial" font-size="14.00">Valor</text>
<polygon fill="none" stroke="black" points="11,-1087.5 11,-1108.5 141,-1108.5 141,-1087.5 11,-1087.5"/>
<text text-anchor="start" x="37" y="-1094.3" font-family="Arial" font-size="14.00">mbr_tamaño</text>
<polygon fill="none" stroke="black" points="143,-1087.5 143,-1108.5 243,-1108.5 243,-1087.5 143,-1087.5"/>
<text text-anchor="start" x="166.5" y="-1094.3" font-family="Arial" font-size="14.00">1024000</text>
<polygon fill="none" stroke="black" points="11,-1064.5 11,-1085.5 141,-1085.5 141,-1064.5 11,-1064.5"/>
<text text-anchor="start" x="14" y="-1071.3" font-family="Arial" font-size="14.00">mbr_fecha_creacion</text>
<polygon fill="none" stroke="black" points="143,-1064.5 143,-1085.5 243,-1085.5 243,-1064.5 143,-1064.5"/>
<text text-anchor="start" x="146" y="-1071.3" font-family="Arial" font-size="14.00">6/8/121 1:52:50</text>
<polygon fill="none" stroke="black" points="11,-1041.5 11,-1062.5 141,-1062.5 141,-1041.5 11,-1041.5"/>
<text text-anchor="start" x="16.5" y="-1048.3" font-family="Arial" font-size="14.00">mbr_disk_signature</text>
<polygon fill="none" stroke="black" points="143,-1041.5 143,-1062.5 243,-1062.5 243,-1041.5 143,-1041.5"/>
<text text-anchor="start" x="185" y="-1048.3" font-family="Arial" font-size="14.00">83</text>
<polygon fill="none" stroke="black" points="11,-1018.5 11,-1039.5 141,-1039.5 141,-1018.5 11,-1018.5"/>
<text text-anchor="start" x="53.5" y="-1025.3" font-family="Arial" font-size="14.00">Disk_fit</text>
<polygon fill="none" stroke="black" points="143,-1018.5 143,-1039.5 243,-1039.5 243,-1018.5 143,-1018.5"/>
<text text-anchor="start" x="188.5" y="-1025.3" font-family="Arial" font-size="14.00">F</text>
<polygon fill="none" stroke="black" points="11,-995.5 11,-1016.5 141,-1016.5 141,-995.5 11,-995.5"/>
<text text-anchor="start" x="35" y="-1002.3" font-family="Arial" font-size="14.00">part_status_0</text>
<polygon fill="none" stroke="black" points="143,-995.5 143,-1016.5 243,-1016.5 243,-995.5 143,-995.5"/>
<text text-anchor="start" x="189" y="-1002.3" font-family="Arial" font-size="14.00">1</text>
<polygon fill="none" stroke="black" points="11,-972.5 11,-993.5 141,-993.5 141,-972.5 11,-972.5"/>
<text text-anchor="start" x="47.5" y="-979.3" font-family="Arial" font-size="14.00">part_fit_0</text>
<polygon fill="none" stroke="black" points="143,-972.5 143,-993.5 243,-993.5 243,-972.5 143,-972.5"/>
<text text-anchor="start" x="186" y="-979.3" font-family="Arial" font-size="14.00">W</text>
<polygon fill="none" stroke="black" points="11,-949.5 11,-970.5 141,-970.5 141,-949.5 11,-949.5"/>
<text text-anchor="start" x="39.5" y="-956.3" font-family="Arial" font-size="14.00">part_start_0</text>
<polygon fill="none" stroke="black" points="143,-949.5 143,-970.5 243,-970.5 243,-949.5 143,-949.5"/>
<text text-anchor="start" x="170" y="-956.3" font-family="Arial" font-size="14.00">307343</text>
<polygon fill="none" stroke="black" points="11,-926.5 11,-947.5 141,-947.5 141,-926.5 11,-926.5"/>
<text text-anchor="start" x="41" y="-933.3" font-family="Arial" font-size="14.00">part_size_0</text>
<polygon fill="none" stroke="black" points="143,-926.5 143,-947.5 243,-947.5 243,-926.5 143,-926.5"/>
<text text-anchor="start" x="170" y="-933.3" font-family="Arial" font-size="14.00">512000</text>
<polygon fill="none" stroke="black" points="11,-903.5 11,-924.5 141,-924.5 141,-903.5 11,-903.5"/>
<text text-anchor="start" x="35.5" y="-910.3" font-family="Arial" font-size="14.00">part_name_0</text>
<polygon fill="none" stroke="black" points="143,-903.5 143,-924.5 243,-924.5 243,-903.5 143,-903.5"/>
<text text-anchor="start" x="159" y="-910.3" font-family="Arial" font-size="14.00">Extendida1</text>
<polygon fill="none" stroke="black" points="11,-880.5 11,-901.5 141,-901.5 141,-880.5 11,-880.5"/>
<text text-anchor="start" x="54.5" y="-887.3" font-family="Arial" font-size="14.00">EBR_0</text>
<polygon fill="none" stroke="black" points="11,-857.5 11,-878.5 141,-878.5 141,-857.5 11,-857.5"/>
<text text-anchor="start" x="35" y="-864.3" font-family="Arial" font-size="14.00">part_status_0</text>
<polygon fill="none" stroke="black" points="143,-857.5 143,-878.5 243,-878.5 243,-857.5 143,-857.5"/>
<text text-anchor="start" x="189" y="-864.3" font-family="Arial" font-size="14.00">1</text>
<polygon fill="none" stroke="black" points="11,-834.5 11,-855.5 141,-855.5 141,-834.5 11,-834.5"/>
<text text-anchor="start" x="47.5" y="-841.3" font-family="Arial" font-size="14.00">part_fit_0</text>
<polygon fill="none" stroke="black" points="143,-834.5 143,-855.5 243,-855.5 243,-834.5 143,-834.5"/>
<text text-anchor="start" x="186" y="-841.3" font-family="Arial" font-size="14.00">W</text>
<polygon fill="none" stroke="black" points="11,-811.5 11,-832.5 141,-832.5 141,-811.5 11,-811.5"/>
<text text-anchor="start" x="39.5" y="-818.3" font-family="Arial" font-size="14.00">part_start_0</text>
<polygon fill="none" stroke="black" points="143,-811.5 143,-832.5 243,-832.5 243,-811.5 143,-811.5"/>
<text text-anchor="start" x="170" y="-818.3" font-family="Arial" font-size="14.00">307343</text>
<polygon fill="none" stroke="black" points="11,-788.5 11,-809.5 141,-809.5 141,-788.5 11,-788.5"/>
<text text-anchor="start" x="41" y="-795.3" font-family="Arial" font-size="14.00">part_size_0</text>
<polygon fill="none" stroke="black" points="143,-788.5 143,-809.5 243,-809.5 243,-788.5 143,-788.5"/>
<text text-anchor="start" x="170" y="-795.3" font-family="Arial" font-size="14.00">102400</text>
<polygon fill="none" stroke="black" points="11,-765.5 11,-786.5 141,-786.5 141,-765.5 11,-765.5"/>
<text text-anchor="start" x="35.5" y="-772.3" font-family="Arial" font-size="14.00">part_name_0</text>
<polygon fill="none" stroke="black" points="143,-765.5 143,-786.5 243,-786.5 243,-765.5 143,-765.5"/>
<text text-anchor="start" x="169" y="-772.3" font-family="Arial" font-size="14.00">Logica1</text>
<polygon fill="none" stroke="black" points="11,-742.5 11,-763.5 141,-763.5 141,-742.5 11,-742.5"/>
<text text-anchor="start" x="54.5" y="-749.3" font-family="Arial" font-size="14.00">EBR_1</text>
<polygon fill="none" stroke="black" points="11,-719.5 11,-740.5 141,-740.5 141,-719.5 11,-719.5"/>
<text text-anchor="start" x="35" y="-726.3" font-family="Arial" font-size="14.00">part_status_1</text>
<polygon fill="none" stroke="black" points="143,-719.5 143,-740.5 243,-740.5 243,-719.5 143,-719.5"/>
<text text-anchor="start" x="189" y="-726.3" font-family="Arial" font-size="14.00">1</text>
<polygon fill="none" stroke="black" points="11,-696.5 11,-717.5 141,-717.5 141,-696.5 11,-696.5"/>
<text text-anchor="start" x="47.5" y="-703.3" font-family="Arial" font-size="14.00">part_fit_1</text>
<polygon fill="none" stroke="black" points="143,-696.5 143,-717.5 243,-717.5 243,-696.5 143,-696.5"/>
<text text-anchor="start" x="186" y="-703.3" font-family="Arial" font-size="14.00">W</text>
<polygon fill="none" stroke="black" points="11,-673.5 11,-694.5 141,-694.5 141,-673.5 11,-673.5"/>
<text text-anchor="start" x="39.5" y="-680.3" font-family="Arial" font-size="14.00">part_start_1</text>
<polygon fill="none" stroke="black" points="143,-673.5 143,-694.5 243,-694.5 243,-673.5 143,-673.5"/>
<text text-anchor="start" x="170" y="-680.3" font-family="Arial" font-size="14.00">409744</text>
<polygon fill="none" stroke="black" points="11,-650.5 11,-671.5 141,-671.5 141,-650.5 11,-650.5"/>
<text text-anchor="start" x="41" y="-657.3" font-family="Arial" font-size="14.00">part_size_1</text>
<polygon fill="none" stroke="black" points="143,-650.5 143,-671.5 243,-671.5 243,-650.5 143,-650.5"/>
<text text-anchor="start" x="170" y="-657.3" font-family="Arial" font-size="14.00">102400</text>
<polygon fill="none" stroke="black" points="11,-627.5 11,-648.5 141,-648.5 141,-627.5 11,-627.5"/>
<text text-anchor="start" x="35.5" y="-634.3" font-family="Arial" font-size="14.00">part_name_1</text>
<polygon fill="none" stroke="black" points="143,-627.5 143,-648.5 243,-648.5 243,-627.5 143,-627.5"/>
<text text-anchor="start" x="169" y="-634.3" font-family="Arial" font-size="14.00">Logica2</text>
<polygon fill="none" stroke="black" points="11,-604.5 11,-625.5 141,-625.5 141,-604.5 11,-604.5"/>
<text text-anchor="start" x="54.5" y="-611.3" font-family="Arial" font-size="14.00">EBR_2</text>
<polygon fill="none" stroke="black" points="11,-581.5 11,-602.5 141,-602.5 141,-581.5 11,-581.5"/>
<text text-anchor="start" x="35" y="-588.3" font-family="Arial" font-size="14.00">part_status_2</text>
<polygon fill="none" stroke="black" points="143,-581.5 143,-602.5 243,-602.5 243,-581.5 143,-581.5"/>
<text text-anchor="start" x="189" y="-588.3" font-family="Arial" font-size="14.00">1</text>
<polygon fill="none" stroke="black" points="11,-558.5 11,-579.5 141,-579.5 141,-558.5 11,-558.5"/>
<text text-anchor="start" x="47.5" y="-565.3" font-family="Arial" font-size="14.00">part_fit_2</text>
<polygon fill="none" stroke="black" points="143,-558.5 143,-579.5 243,-579.5 243,-558.5 143,-558.5"/>
<text text-anchor="start" x="186" y="-565.3" font-family="Arial" font-size="14.00">W</text>
<polygon fill="none" stroke="black" points="11,-535.5 11,-556.5 141,-556.5 141,-535.5 11,-535.5"/>
<text text-anchor="start" x="39.5" y="-542.3" font-family="Arial" font-size="14.00">part_start_2</text>
<polygon fill="none" stroke="black" points="143,-535.5 143,-556.5 243,-556.5 243,-535.5 143,-535.5"/>
<text text-anchor="start" x="170" y="-542.3" font-family="Arial" font-size="14.00">512145</text>
<polygon fill="none" stroke="black" points="11,-512.5 11,-533.5 141,-533.5 141,-512.5 11,-512.5"/>
<text text-anchor="start" x="41" y="-519.3" font-family="Arial" font-size="14.00">part_size_2</text>
<polygon fill="none" stroke="black" points="143,-512.5 143,-533.5 243,-533.5 243,-512.5 143,-512.5"/>
<text text-anchor="start" x="170" y="-519.3" font-family="Arial" font-size="14.00">102400</text>
<polygon fill="none" stroke="black" points="11,-489.5 11,-510.5 141,-510.5 141,-489.5 11,-489.5"/>
<text text-anchor="start" x="35.5" y="-496.3" font-family="Arial" font-size="14.00">part_name_2</text>
<polygon fill="none" stroke="black" points="143,-489.5 143,-510.5 243,-510.5 243,-489.5 143,-489.5"/>
<text text-anchor="start" x="169" y="-496.3" font-family="Arial" font-size="14.00">Logica3</text>
<polygon fill="none" stroke="black" points="11,-466.5 11,-487.5 141,-487.5 141,-466.5 11,-466.5"/>
<text text-anchor="start" x="54.5" y="-473.3" font-family="Arial" font-size="14.00">EBR_3</text>
<polygon fill="none" stroke="black" points="11,-443.5 11,-464.5 141,-464.5 141,-443.5 11,-443.5"/>
<text text-anchor="start" x="35" y="-450.3" font-family="Arial" font-size="14.00">part_status_3</text>
<polygon fill="none" stroke="black" points="143,-443.5 143,-464.5 243,-464.5 243,-443.5 143,-443.5"/>
<text text-anchor="start" x="189" y="-450.3" font-family="Arial" font-size="14.00">1</text>
<polygon fill="none" stroke="black" points="11,-420.5 11,-441.5 141,-441.5 141,-420.5 11,-420.5"/>
<text text-anchor="start" x="47.5" y="-427.3" font-family="Arial" font-size="14.00">part_fit_3</text>
<polygon fill="none" stroke="black" points="143,-420.5 143,-441.5 243,-441.5 243,-420.5 143,-420.5"/>
<text text-anchor="start" x="186" y="-427.3" font-family="Arial" font-size="14.00">W</text>
<polygon fill="none" stroke="black" points="11,-397.5 11,-418.5 141,-418.5 141,-397.5 11,-397.5"/>
<text text-anchor="start" x="39.5" y="-404.3" font-family="Arial" font-size="14.00">part_start_3</text>
<polygon fill="none" stroke="black" points="143,-397.5 143,-418.5 243,-418.5 243,-397.5 143,-397.5"/>
<text text-anchor="start" x="170" y="-404.3" font-family="Arial" font-size="14.00">614546</text>
<polygon fill="none" stroke="black" points="11,-374.5 11,-395.5 141,-395.5 141,-374.5 11,-374.5"/>
<text text-anchor="start" x="41" y="-381.3" font-family="Arial" font-size="14.00">part_size_3</text>
<polygon fill="none" stroke="black" points="143,-374.5 143,-395.5 243,-395.5 243,-374.5 143,-374.5"/>
<text text-anchor="start" x="170" y="-381.3" font-family="Arial" font-size="14.00">102400</text>
<polygon fill="none" stroke="black" points="11,-351.5 11,-372.5 141,-372.5 141,-351.5 11,-351.5"/>
<text text-anchor="start" x="35.5" y="-358.3" font-family="Arial" font-size="14.00">part_name_3</text>
<polygon fill="none" stroke="black" points="143,-351.5 143,-372.5 243,-372.5 243,-351.5 143,-351.5"/>
<text text-anchor="start" x="169" y="-358.3" font-family="Arial" font-size="14.00">Logica4</text>
<polygon fill="none" stroke="black" points="11,-328.5 11,-349.5 141,-349.5 141,-328.5 11,-328.5"/>
<text text-anchor="start" x="35" y="-335.3" font-family="Arial" font-size="14.00">part_status_1</text>
<polygon fill="none" stroke="black" points="143,-328.5 143,-349.5 243,-349.5 243,-328.5 143,-328.5"/>
<text text-anchor="start" x="189" y="-335.3" font-family="Arial" font-size="14.00">1</text>
<polygon fill="none" stroke="black" points="11,-305.5 11,-326.5 141,-326.5 141,-305.5 11,-305.5"/>
<text text-anchor="start" x="47.5" y="-312.3" font-family="Arial" font-size="14.00">part_fit_1</text>
<polygon fill="none" stroke="black" points="143,-305.5 143,-326.5 243,-326.5 243,-305.5 143,-305.5"/>
<text text-anchor="start" x="186" y="-312.3" font-family="Arial" font-size="14.00">W</text>
<polygon fill="none" stroke="black" points="11,-282.5 11,-303.5 141,-303.5 141,-282.5 11,-282.5"/>
<text text-anchor="start" x="39.5" y="-289.3" font-family="Arial" font-size="14.00">part_start_1</text>
<polygon fill="none" stroke="black" points="143,-282.5 143,-303.5 243,-303.5 243,-282.5 143,-282.5"/>
<text text-anchor="start" x="181.5" y="-289.3" font-family="Arial" font-size="14.00">140</text>
<polygon fill="none" stroke="black" points="11,-259.5 11,-280.5 141,-280.5 141,-259.5 11,-259.5"/>
<text text-anchor="start" x="41" y="-266.3" font-family="Arial" font-size="14.00">part_size_1</text>
<polygon fill="none" stroke="black" points="143,-259.5 143,-280.5 243,-280.5 243,-259.5 143,-259.5"/>
<text text-anchor="start" x="170" y="-266.3" font-family="Arial" font-size="14.00">102400</text>
<polygon fill="none" stroke="black" points="11,-236.5 11,-257.5 141,-257.5 141,-236.5 11,-236.5"/>
<text text-anchor="start" x="35.5" y="-243.3" font-family="Arial" font-size="14.00">part_name_1</text>
<polygon fill="none" stroke="black" points="143,-236.5 143,-257.5 243,-257.5 243,-236.5 143,-236.5"/>
<text text-anchor="start" x="163.5" y="-243.3" font-family="Arial" font-size="14.00">Primaria1</text>
<polygon fill="none" stroke="black" points="11,-213.5 11,-234.5 141,-234.5 141,-213.5 11,-213.5"/>
<text text-anchor="start" x="35" y="-220.3" font-family="Arial" font-size="14.00">part_status_2</text>
<polygon fill="none" stroke="black" points="143,-213.5 143,-234.5 243,-234.5 243,-213.5 143,-213.5"/>
<text text-anchor="start" x="189" y="-220.3" font-family="Arial" font-size="14.00">1</text>
<polygon fill="none" stroke="black" points="11,-190.5 11,-211.5 141,-211.5 141,-190.5 11,-190.5"/>
<text text-anchor="start" x="47.5" y="-197.3" font-family="Arial" font-size="14.00">part_fit_2</text>
<polygon fill="none" stroke="black" points="143,-190.5 143,-211.5 243,-211.5 243,-190.5 143,-190.5"/>
<text text-anchor="start" x="186" y="-197.3" font-family="Arial" font-size="14.00">W</text>
<polygon fill="none" stroke="black" points="11,-167.5 11,-188.5 141,-188.5 141,-167.5 11,-167.5"/>
<text text-anchor="start" x="39.5" y="-174.3" font-family="Arial" font-size="14.00">part_start_2</text>
<polygon fill="none" stroke="black" points="143,-167.5 143,-188.5 243,-188.5 243,-167.5 143,-167.5"/>
<text text-anchor="start" x="170" y="-174.3" font-family="Arial" font-size="14.00">102541</text>
<polygon fill="none" stroke="black" points="11,-144.5 11,-165.5 141,-165.5 141,-144.5 11,-144.5"/>
<text text-anchor="start" x="41" y="-151.3" font-family="Arial" font-size="14.00">part_size_2</text>
<polygon fill="none" stroke="black" points="143,-144.5 143,-165.5 243,-165.5 243,-144.5 143,-144.5"/>
<text text-anchor="start" x="170" y="-151.3" font-family="Arial" font-size="14.00">102400</text>
<polygon fill="none" stroke="black" points="11,-121.5 11,-142.5 141,-142.5 141,-121.5 11,-121.5"/>
<text text-anchor="start" x="35.5" y="-128.3" font-family="Arial" font-size="14.00">part_name_2</text>
<polygon fill="none" stroke="black" points="143,-121.5 143,-142.5 243,-142.5 243,-121.5 143,-121.5"/>
<text text-anchor="start" x="163.5" y="-128.3" font-family="Arial" font-size="14.00">Primaria2</text>
<polygon fill="none" stroke="black" points="11,-98.5 11,-119.5 141,-119.5 141,-98.5 11,-98.5"/>
<text text-anchor="start" x="35" y="-105.3" font-family="Arial" font-size="14.00">part_status_3</text>
<polygon fill="none" stroke="black" points="143,-98.5 143,-119.5 243,-119.5 243,-98.5 143,-98.5"/>
<text text-anchor="start" x="189" y="-105.3" font-family="Arial" font-size="14.00">1</text>
<polygon fill="none" stroke="black" points="11,-75.5 11,-96.5 141,-96.5 141,-75.5 11,-75.5"/>
<text text-anchor="start" x="47.5" y="-82.3" font-family="Arial" font-size="14.00">part_fit_3</text>
<polygon fill="none" stroke="black" points="143,-75.5 143,-96.5 243,-96.5 243,-75.5 143,-75.5"/>
<text text-anchor="start" x="186" y="-82.3" font-family="Arial" font-size="14.00">W</text>
<polygon fill="none" stroke="black" points="11,-52.5 11,-73.5 141,-73.5 141,-52.5 11,-52.5"/>
<text text-anchor="start" x="39.5" y="-59.3" font-family="Arial" font-size="14.00">part_start_3</text>
<polygon fill="none" stroke="black" points="143,-52.5 143,-73.5 243,-73.5 243,-52.5 143,-52.5"/>
<text text-anchor="start" x="170" y="-59.3" font-family="Arial" font-size="14.00">204942</text>
<polygon fill="none" stroke="black" points="11,-29.5 11,-50.5 141,-50.5 141,-29.5 11,-29.5"/>
<text text-anchor="start" x="41" y="-36.3" font-family="Arial" font-size="14.00">part_size_3</text>
<polygon fill="none" stroke="black" points="143,-29.5 143,-50.5 243,-50.5 243,-29.5 143,-29.5"/>
<text text-anchor="start" x="170" y="-36.3" font-family="Arial" font-size="14.00">102400</text>
<polygon fill="none" stroke="black" points="11,-6.5 11,-27.5 141,-27.5 141,-6.5 11,-6.5"/>
<text text-anchor="start" x="35.5" y="-13.3" font-family="Arial" font-size="14.00">part_name_3</text>
<polygon fill="none" stroke="black" points="143,-6.5 143,-27.5 243,-27.5 243,-6.5 143,-6.5"/>
<text text-anchor="start" x="163.5" y="-13.3" font-family="Arial" font-size="14.00">Primaria3</text>
<polygon fill="none" stroke="black" points="8,-4 8,-1135 246,-1135 246,-4 8,-4"/>
</g>
<!-- a&#45;&gt;tablaMbr -->
</g>
</svg>
